<svg xmlns="http://www.w3.org/2000/svg" xmlns:xlink="http://www.w3.org/1999/xlink" version="1.1" width="256" height="256" viewBox="0 0 256 256" xml:space="preserve">

<defs>
</defs>
<g style="stroke: none; stroke-width: 0; stroke-dasharray: none; stroke-linecap: butt; stroke-linejoin: miter; stroke-miterlimit: 10; fill: none; fill-rule: nonzero; opacity: 1;" transform="translate(1.4065934065934016 1.4065934065934016) scale(2.81 2.81)" >
	<path d="M 83.698 1.5 H 6.302 C 3.65 1.5 1.5 3.649 1.5 6.302 v 77.396 c 0 2.652 2.149 4.802 4.802 4.802 h 39.557 V 54.809 H 34.522 v -13.13 h 11.338 v -9.683 c 0 -11.237 6.863 -17.356 16.887 -17.356 c 4.802 0 8.929 0.357 10.131 0.517 v 11.744 l -6.953 0.003 c -5.451 0 -6.507 2.591 -6.507 6.392 v 8.383 H 72.42 l -1.693 13.13 H 59.418 V 88.5 h 24.28 c 2.651 0 4.801 -2.15 4.801 -4.802 V 6.302 C 88.5 3.649 86.35 1.5 83.698 1.5 z" style="stroke: none; stroke-width: 1; stroke-dasharray: none; stroke-linecap: butt; stroke-linejoin: miter; stroke-miterlimit: 10; fill: rgb(12,247,252); fill-rule: nonzero; opacity: 1;" transform=" matrix(1 0 0 1 0 0) " stroke-linecap="round" />
	<path d="M 83.698 90 H 57.919 V 53.309 h 11.488 l 1.307 -10.13 H 57.919 v -9.883 c 0 -3.674 0.91 -7.892 8.007 -7.892 l 5.452 -0.002 v -8.895 c -1.866 -0.167 -5.079 -0.367 -8.631 -0.367 c -9.636 0 -15.388 5.927 -15.388 15.856 v 11.183 H 36.022 v 10.13 h 11.337 V 90 H 6.302 C 2.828 90 0 87.173 0 83.698 V 6.302 C 0 2.827 2.828 0 6.302 0 h 77.396 C 87.173 0 90 2.827 90 6.302 v 77.396 C 90 87.173 87.173 90 83.698 90 z M 60.919 87 h 22.779 C 85.519 87 87 85.519 87 83.698 V 6.302 C 87 4.481 85.519 3 83.698 3 H 6.302 C 4.481 3 3 4.481 3 6.302 v 77.396 C 3 85.519 4.481 87 6.302 87 h 38.057 V 56.309 H 33.022 v -16.13 h 11.337 v -8.183 c 0 -11.631 7.046 -18.856 18.388 -18.856 c 4.785 0 9.024 0.357 10.328 0.531 l 1.303 0.173 V 28.4 l -8.451 0.003 c -4.285 0 -5.008 1.509 -5.008 4.892 v 6.883 h 13.207 l -2.08 16.13 H 60.919 V 87 z" style="stroke: none; stroke-width: 1; stroke-dasharray: none; stroke-linecap: butt; stroke-linejoin: miter; stroke-miterlimit: 10; fill: rgb(12,247,252); fill-rule: nonzero; opacity: 1;" transform=" matrix(1 0 0 1 0 0) " stroke-linecap="round" />
</g>
</svg>